<svg width="139" height="24" fill="none" xmlns="http://www.w3.org/2000/svg"><path d="M33.58 17.92c-.44 0-.87-.05-1.28-.16-.4-.12-.77-.3-1.09-.55A2.62 2.62 0 0 1 30.18 15c0-.66.14-1.2.4-1.58.28-.4.64-.72 1.1-.92.45-.21.97-.35 1.56-.43.6-.07 1.22-.1 1.85-.1h1.4c0-.36-.07-.68-.2-.95-.12-.28-.31-.5-.57-.64a1.86 1.86 0 0 0-1-.24c-.25 0-.5.04-.75.11-.23.06-.43.15-.59.28a.85.85 0 0 0-.31.48h-2.61c.07-.54.24-1 .51-1.38.27-.4.6-.72 1.01-.96.4-.25.85-.42 1.33-.53.49-.13 1-.19 1.5-.19 1.42 0 2.46.4 3.14 1.22.67.8 1 1.93 1 3.4v5.23h-2.31l-.04-1.26c-.3.43-.65.75-1.05.94-.38.2-.74.32-1.1.37-.36.05-.64.07-.87.07Zm.6-2.04c.42 0 .82-.08 1.17-.26.36-.17.64-.4.85-.7.2-.29.31-.62.31-.99v-.24h-1.77c-.25 0-.5.01-.75.04a2.6 2.6 0 0 0-.64.15.89.89 0 0 0-.45.3.96.96 0 0 0-.16.6c0 .24.06.45.18.62.14.16.32.29.54.37.22.07.46.11.71.11ZM44.6 17.92c-.99 0-1.8-.22-2.45-.66a4.17 4.17 0 0 1-1.44-1.8 6.46 6.46 0 0 1-.48-2.52c0-.97.18-1.83.52-2.58.34-.76.85-1.35 1.53-1.78a4.6 4.6 0 0 1 3.53-.52 3.3 3.3 0 0 1 1.7.94V4.77h2.57V17.8h-2.5l-.04-1.1c-.22.3-.5.52-.81.7-.3.18-.64.3-1 .4-.35.08-.73.12-1.14.12Zm.51-2.31a2.18 2.18 0 0 0 2.13-1.38c.18-.4.26-.84.26-1.31 0-.48-.08-.91-.26-1.3-.16-.41-.41-.73-.77-.96a2.3 2.3 0 0 0-1.36-.37c-.56 0-1.02.13-1.36.38-.35.26-.6.6-.74 1.02a4.1 4.1 0 0 0-.09 2.3c.09.3.22.58.4.82a2 2 0 0 0 .72.6c.3.13.65.2 1.07.2ZM56.4 22.28a5.8 5.8 0 0 1-2.09-.36 3.83 3.83 0 0 1-1.62-1.13 4.25 4.25 0 0 1-.9-1.98h2.63c.09.24.22.44.4.6.2.18.43.3.7.4.29.08.58.12.89.12.57 0 1.02-.12 1.34-.37.32-.24.54-.57.66-.97.13-.4.19-.83.19-1.31v-.68c-.22.35-.5.62-.83.8a4.39 4.39 0 0 1-2.08.52 4.19 4.19 0 0 1-2.48-.68 3.94 3.94 0 0 1-1.4-1.78 6.52 6.52 0 0 1-.44-2.41c0-.95.16-1.8.5-2.58.32-.77.82-1.38 1.48-1.84a4.3 4.3 0 0 1 2.49-.68c.6 0 1.13.1 1.6.3.46.18.86.46 1.2.82l.21-.97h2.36v8.46c0 1.18-.15 2.2-.46 3.04-.3.86-.82 1.52-1.53 1.99a5 5 0 0 1-2.81.7Zm-.14-6.67c.54 0 .98-.13 1.33-.37.35-.25.61-.57.79-.98.17-.41.25-.86.25-1.34 0-.5-.08-.95-.25-1.34a2.13 2.13 0 0 0-2.1-1.33 2.14 2.14 0 0 0-2.14 1.45 4.05 4.05 0 0 0 .02 2.6c.15.4.4.71.74.96.34.23.8.35 1.36.35ZM67.26 17.92c-1.42 0-2.52-.36-3.29-1.08-.76-.74-1.14-1.84-1.14-3.31V8.1h2.58v5.24c0 .44.06.84.18 1.18.13.33.34.6.6.8.29.19.65.29 1.1.29.47 0 .84-.1 1.1-.32.25-.2.43-.48.53-.83.1-.35.15-.73.15-1.12V8.1h2.55v5.43c0 1.53-.38 2.65-1.16 3.35a4.56 4.56 0 0 1-3.2 1.04ZM76.33 17.92c-.44 0-.87-.05-1.28-.16-.4-.12-.77-.3-1.09-.55A2.62 2.62 0 0 1 72.93 15c0-.66.13-1.2.4-1.58.27-.4.64-.72 1.09-.92.45-.21.98-.35 1.56-.43.6-.07 1.22-.1 1.86-.1h1.4c0-.36-.07-.68-.2-.95-.12-.28-.31-.5-.57-.64a1.86 1.86 0 0 0-1-.24c-.25 0-.5.04-.75.11-.23.06-.43.15-.59.28a.85.85 0 0 0-.31.48H73.2c.07-.54.24-1 .51-1.38.27-.4.6-.72 1.01-.96.4-.25.85-.42 1.33-.53.49-.13 1-.19 1.5-.19 1.42 0 2.46.4 3.13 1.22.68.8 1.02 1.93 1.02 3.4v5.23h-2.32l-.04-1.26c-.3.43-.65.75-1.05.94-.38.2-.75.32-1.1.37-.36.05-.65.07-.87.07Zm.6-2.04c.42 0 .81-.08 1.17-.26.36-.17.64-.4.85-.7.2-.29.3-.62.3-.99v-.24H77.5c-.25 0-.5.01-.75.04a2.6 2.6 0 0 0-.65.15.89.89 0 0 0-.44.3.96.96 0 0 0-.16.6c0 .24.06.45.18.62.14.16.31.29.54.37.22.07.46.11.71.11ZM83.35 17.8V8.1h2.32l.16 1.16c.25-.37.53-.65.83-.83.31-.2.63-.33.96-.39a4.65 4.65 0 0 1 1.45-.09h.3v2.49h-.61c-.58 0-1.08.1-1.5.29-.44.2-.77.5-1 .92a3.4 3.4 0 0 0-.33 1.6v4.55h-2.58ZM94.02 17.92c-.98 0-1.8-.22-2.45-.66a4.17 4.17 0 0 1-1.43-1.8 6.46 6.46 0 0 1-.48-2.52c0-.97.17-1.83.51-2.58.35-.76.86-1.35 1.53-1.78a4.6 4.6 0 0 1 3.53-.52 3.3 3.3 0 0 1 1.7.94V4.77h2.57V17.8H97l-.04-1.1c-.22.3-.49.52-.8.7-.31.18-.64.3-1 .4-.36.08-.74.12-1.14.12Zm.51-2.31a2.18 2.18 0 0 0 2.14-1.38c.17-.4.26-.84.26-1.31 0-.48-.09-.91-.26-1.3-.16-.41-.42-.73-.77-.96a2.3 2.3 0 0 0-1.37-.37c-.56 0-1.01.13-1.36.38-.34.26-.59.6-.73 1.02a4.1 4.1 0 0 0-.1 2.3c.1.3.23.58.41.82a2 2 0 0 0 .72.6c.3.13.65.2 1.06.2ZM105.98 17.8V8.1h2.32l.22 1.08c.25-.34.52-.6.81-.77.3-.18.62-.3.92-.37.3-.06.6-.09.85-.09.58 0 1.08.11 1.53.33.44.22.8.58 1.06 1.07a3.17 3.17 0 0 1 1.83-1.27c.34-.09.69-.13 1.04-.13.75 0 1.35.16 1.8.48.47.3.81.74 1.02 1.29.22.55.33 1.2.33 1.93v6.15h-2.58v-5.47c0-.22 0-.45-.03-.68a2.04 2.04 0 0 0-.19-.66 1.2 1.2 0 0 0-.4-.52c-.17-.13-.42-.2-.74-.2-.3 0-.56.07-.77.2-.2.14-.38.32-.5.55-.12.22-.21.47-.27.74-.05.26-.08.52-.08.8v5.24h-2.57V12.3c0-.2-.02-.43-.04-.66a2.36 2.36 0 0 0-.17-.66c-.08-.21-.22-.38-.42-.52-.18-.13-.44-.2-.77-.2-.46 0-.8.13-1.05.4-.23.26-.39.57-.46.94a4.9 4.9 0 0 0-.11 1v5.19h-2.58ZM124.36 17.92c-.44 0-.87-.05-1.3-.16-.4-.12-.76-.3-1.08-.55a2.63 2.63 0 0 1-1.03-2.21c0-.66.14-1.2.4-1.58.28-.4.64-.72 1.1-.92.45-.21.97-.35 1.56-.43.6-.07 1.22-.1 1.86-.1h1.4c0-.36-.07-.68-.2-.95-.13-.28-.32-.5-.58-.64a1.86 1.86 0 0 0-1-.24c-.25 0-.5.04-.75.11-.23.06-.43.15-.58.28a.84.84 0 0 0-.32.48h-2.61c.07-.54.24-1 .51-1.38.27-.4.61-.72 1.02-.96.4-.25.84-.42 1.32-.53.5-.13 1-.19 1.51-.19 1.41 0 2.45.4 3.13 1.22.67.8 1.01 1.93 1.01 3.4v5.23h-2.32l-.03-1.26c-.31.43-.66.75-1.05.94-.38.2-.75.32-1.1.37-.36.05-.65.07-.87.07Zm.59-2.04c.42 0 .82-.08 1.17-.26.36-.17.64-.4.85-.7.2-.29.31-.62.31-.99v-.24h-1.76c-.26 0-.51.01-.76.04a2.6 2.6 0 0 0-.64.15.9.9 0 0 0-.44.3.96.96 0 0 0-.17.6c0 .24.06.45.18.62.14.16.32.29.54.37.22.07.46.11.72.11ZM131.37 17.8V8.1h2.58v9.7h-2.58Zm1.3-10.68a1.6 1.6 0 0 1-1.17-.42c-.3-.3-.44-.67-.44-1.12a1.54 1.54 0 0 1 1.62-1.6c.43 0 .8.14 1.1.44.32.28.48.66.48 1.14a1.51 1.51 0 0 1-1.6 1.56ZM135.62 17.8V4.77h2.58V17.8h-2.58Z" fill="#35383B"/><mask id="b" style="mask-type:alpha" maskUnits="userSpaceOnUse" x="2" y="4" width="20" height="16"><path d="M2.1 5.3c0-.44 0-.66.09-.83.07-.15.19-.26.34-.34.16-.08.38-.08.82-.08h17.3c.44 0 .66 0 .82.08.15.08.27.2.34.34.09.17.09.39.09.83v13.4c0 .44 0 .66-.09.83a.78.78 0 0 1-.34.34c-.16.08-.38.08-.82.08H3.35c-.44 0-.66 0-.82-.08a.78.78 0 0 1-.34-.34c-.09-.17-.09-.39-.09-.83V5.3Z" fill="url(#a)"/></mask><g mask="url(#b)"><path d="M2.1 5.3c0-.44 0-.66.09-.83.07-.15.19-.26.34-.34.16-.08.38-.08.82-.08h17.3c.44 0 .66 0 .82.08.15.08.27.2.34.34.09.17.09.39.09.83v13.4c0 .44 0 .66-.09.83a.78.78 0 0 1-.34.34c-.16.08-.38.08-.82.08H3.35c-.44 0-.66 0-.82-.08a.78.78 0 0 1-.34-.34c-.09-.17-.09-.39-.09-.83V5.3Z" fill="url(#c)"/><path fill-rule="evenodd" clip-rule="evenodd" d="m4.17 7.08.04.06.18.02h-.02a1.17 1.17 0 0 1-.2-.08Zm.5.12L21.9 9.76V4.05l-1.33 2.24c-.2.34-.3.5-.43.63-.12.1-.27.18-.42.23-.18.06-.37.06-.76.06H4.66Z" fill="#DA7034"/></g><path fill-rule="evenodd" clip-rule="evenodd" d="M15.63 11.3c.3.31.3.82 0 1.14l-2.21 2.29c-.6.6-1.55.6-2.14 0L9.9 13.3a.82.82 0 0 1 0-1.14c.3-.31.8-.31 1.1 0l1.35 1.39 2.18-2.25c.3-.32.8-.32 1.1 0Z" fill="#fff"/><defs><linearGradient id="a" x1="2.1" y1="-5.31" x2="2.01" y2="19.95" gradientUnits="userSpaceOnUse"><stop stop-color="#FFBF1A"/><stop offset="1" stop-color="#FF9036"/></linearGradient><linearGradient id="c" x1="2.1" y1="-5.31" x2="2.01" y2="19.95" gradientUnits="userSpaceOnUse"><stop stop-color="#FFBF1A"/><stop offset="1" stop-color="#FF9036"/></linearGradient></defs></svg>